# xmcd
#
# Track frame offsets:
#	150
#	20264
#	37460
#	51240
#	67368
#	77659
#	92425
#	105383
#	120890
#	139339
#	148664
#	168165
#	185763
#	199861
#	215748
#	232807
#
# Disc length: 3348 seconds
#
# Revision: 1
# Processed by: cddbd v1.5.2PL0 Copyright (c) Steve Scherf et al.
# Submitted via: audiograbber 1.83.01
#
DISCID=e60d1210
DTITLE=Heike Venter - Country
DYEAR=1900
DGENRE=Country
TTITLE0=Tell me why
TTITLE1=Down at the twist and shout
TTITLE2=Here you come again
TTITLE3=Don´t be stupid
TTITLE4=Snowbird
TTITLE5=Every little thing
TTITLE6=Top of the world
TTITLE7=I feel lucky
TTITLE8=Forever and for always
TTITLE9=Your good girl´s gonna go bad
TTITLE10=Young love
TTITLE11=I saw the light
TTITLE12=Thank god I´m  a countrygirl
TTITLE13=Shut up and drive
TTITLE14=Quitten times
TTITLE15=When the lights go down
EXTD=
EXTT0=
EXTT1=
EXTT2=
EXTT3=
EXTT4=
EXTT5=
EXTT6=
EXTT7=
EXTT8=
EXTT9=
EXTT10=
EXTT11=
EXTT12=
EXTT13=
EXTT14=
EXTT15=
PLAYORDER=
